<svg xmlns="http://www.w3.org/2000/svg" width="80" height="79.5" viewBox="0 0 320 318">
  <defs>
    <style>
      .cls-1 {
        fill-rule: evenodd;
      }
    </style>
  </defs>
  <path id="Color_Fill_1" data-name="Color Fill 1" class="cls-1" d="M155,0c25.711,0.23,39.834,23.844,55,36,37.11,29.745,74.72,58.485,110,90q-0.5,5-1,10c-5.579,12.449-21.065,18.62-31,27-29.951,25.265-60.641,49.849-91,75-9.092,7.532-23.591,30.129-44,24-17.324-5.2-65.813-53.318-82-67C55.6,181.981.279,149.035,0,127c10.623-15.561,29.7-24.953,44-37C80.418,59.309,116.559,28.883,155,0ZM11,173c15.116,2.723,24.953,17.5,35,26,24.721,20.911,93.241,82.831,118,89l44-35c19.827-18.321,76.36-72.1,100-80,5.229,6.752,9.9,5.248,10,10,4.9,19.881-55.761,55.777-69,68-13.9,12.838-66.751,62.634-82,67-20.256,5.8-35.282-16.077-44-24-29.983-27.247-63.543-52.789-95-78-10.66-8.543-26.964-14.026-28-32C2.979,178.466,6.806,177.037,11,173Z"/>
</svg>
